<?xml version="1.0" encoding="iso-8859-1"?>
<!-- Generator: Adobe Illustrator 19.0.0, SVG Export Plug-In . SVG Version: 6.00 Build 0)  -->
<svg version="1.1" id="Capa_1" xmlns="http://www.w3.org/2000/svg" xmlns:xlink="http://www.w3.org/1999/xlink" x="0px" y="0px"
	 viewBox="0 0 512.001 512.001" style="enable-background:new 0 0 512.001 512.001;" xml:space="preserve">
<path style="fill:#D2D7DD;" d="M355.3,458.992H102.784c-14.638,0-26.504,11.867-26.504,26.505l0,0
	c0,14.638,11.867,26.505,26.504,26.505h311.264c11.97,0,21.674-9.704,21.674-21.674V420.46"/>
<path style="fill:#E4E7EA;" d="M355.3,444.711H102.784c-14.638,0-26.504,11.867-26.504,26.504l0,0
	c0,14.638,11.867,26.504,26.504,26.504h311.264c11.97,0,21.674-9.704,21.674-21.674v-69.867"/>
<path style="fill:#D2D7DD;" d="M355.3,430.432H102.784c-14.638,0-26.504,11.867-26.504,26.504l0,0
	c0,14.638,11.867,26.504,26.504,26.504h311.264c11.97,0,21.674-9.704,21.674-21.674v-69.867"/>
<path style="fill:#E4E7EA;" d="M355.3,416.151H102.784c-14.638,0-26.504,11.867-26.504,26.505l0,0
	c0,14.638,11.867,26.505,26.504,26.505h311.264c11.97,0,21.674-9.704,21.674-21.674V377.62"/>
<path style="fill:#74B800;" d="M435.721,21.671v415.647c0,11.964-9.707,21.671-21.671,21.671H102.788
	c-14.639,0-26.509,11.87-26.509,26.509V26.509C76.279,11.87,88.149,0,102.788,0H414.05C426.014,0,435.721,9.707,435.721,21.671z"/>
<g>
	<path style="fill:#639602;" d="M113.895,0v458.99h-11.107c-14.639,0-26.509,11.87-26.509,26.509V26.509
		C76.279,11.87,88.149,0,102.788,0H113.895z"/>
	<rect x="139.013" y="0.003" style="fill:#639602;" width="15.673" height="458.99"/>
</g>
<path style="fill:#FEFFFF;" d="M359.651,240.223H208.326c-12.311,0-22.291-9.98-22.291-22.291v-65.127
	c0-12.311,9.98-22.291,22.291-22.291h151.326c12.311,0,22.291,9.98,22.291,22.291v65.127
	C381.942,230.243,371.962,240.223,359.651,240.223z"/>
<path style="fill:#639602;" d="M359.652,248.059H208.326c-16.612,0-30.127-13.516-30.127-30.127v-65.127
	c0-16.612,13.516-30.127,30.127-30.127h151.326c16.612,0,30.126,13.516,30.126,30.127v65.127
	C389.779,234.544,376.265,248.059,359.652,248.059z M208.326,138.35c-7.97,0-14.454,6.485-14.454,14.454v65.127
	c0,7.969,6.484,14.454,14.454,14.454h151.326c7.969,0,14.453-6.485,14.453-14.454v-65.127c0-7.969-6.484-14.454-14.453-14.454
	H208.326z"/>
<g>
</g>
<g>
</g>
<g>
</g>
<g>
</g>
<g>
</g>
<g>
</g>
<g>
</g>
<g>
</g>
<g>
</g>
<g>
</g>
<g>
</g>
<g>
</g>
<g>
</g>
<g>
</g>
<g>
</g>
</svg>
